<svg id="visual" viewBox="0 0 1920 3700" width="1920" height="3700" xmlns="http://www.w3.org/2000/svg" xmlns:xlink="http://www.w3.org/1999/xlink" version="1.1"><rect x="0" y="0" width="1920" height="3700" fill="#57f"></rect><defs><linearGradient id="grad1_0" x1="0%" y1="100%" x2="100%" y2="0%"><stop offset="30%" stop-color="#5577ff" stop-opacity="1"></stop><stop offset="70%" stop-color="#5577ff" stop-opacity="1"></stop></linearGradient></defs><defs><linearGradient id="grad2_0" x1="0%" y1="100%" x2="100%" y2="0%"><stop offset="30%" stop-color="#5577ff" stop-opacity="1"></stop><stop offset="70%" stop-color="#5577ff" stop-opacity="1"></stop></linearGradient></defs><g transform="translate(1920, 3700)"><path d="M-1920 0C-1849.2 -322 -1778.4 -644.1 -1627.3 -939.5C-1476.1 -1234.9 -1244.6 -1503.8 -960 -1662.8C-675.4 -1821.8 -337.7 -1870.9 0 -1920L0 0Z" fill="#fff"></path></g><g transform="translate(0, 0)"><path d="M1920 0C1831.7 311.9 1743.3 623.8 1594.4 920.5C1445.4 1217.2 1235.8 1498.7 960 1662.8C684.2 1826.8 342.1 1873.4 0 1920L0 0Z" fill="#fff"></path></g></svg>