<svg id="visual" viewBox="0 0 1920 3700" width="1920" height="3700" xmlns="http://www.w3.org/2000/svg" xmlns:xlink="http://www.w3.org/1999/xlink" version="1.1"><rect x="0" y="0" width="1920" height="3700" fill="#5271ff"></rect><defs><linearGradient id="grad1_0" x1="0%" y1="100%" x2="100%" y2="0%"><stop offset="30%" stop-color="#5271ff" stop-opacity="1"></stop><stop offset="70%" stop-color="#5271ff" stop-opacity="1"></stop></linearGradient></defs><defs><linearGradient id="grad2_0" x1="0%" y1="100%" x2="100%" y2="0%"><stop offset="30%" stop-color="#5271ff" stop-opacity="1"></stop><stop offset="70%" stop-color="#5271ff" stop-opacity="1"></stop></linearGradient></defs><g transform="translate(1920, 3700)"><path d="M-1920 0C-1871.8 -339.3 -1823.6 -678.6 -1662.8 -960C-1501.9 -1241.4 -1228.4 -1464.8 -932.5 -1615.1C-636.6 -1765.5 -318.3 -1842.7 0 -1920L0 0Z" fill="#fff"></path></g><g transform="translate(0, 0)"><path d="M1920 0C1857.5 326.8 1795 653.7 1642.9 948.5C1490.7 1243.3 1248.8 1506.2 960 1662.8C671.2 1819.4 335.6 1869.7 0 1920L0 0Z" fill="#fff"></path></g></svg>