<svg id="visual" viewBox="0 0 1920 3700" width="1920" height="3700" xmlns="http://www.w3.org/2000/svg" xmlns:xlink="http://www.w3.org/1999/xlink" version="1.1"><rect x="0" y="0" width="1920" height="3700" fill="#5271ff"></rect><defs><linearGradient id="grad1_0" x1="0%" y1="100%" x2="100%" y2="0%"><stop offset="30%" stop-color="#5271ff" stop-opacity="1"></stop><stop offset="70%" stop-color="#5271ff" stop-opacity="1"></stop></linearGradient></defs><defs><linearGradient id="grad2_0" x1="0%" y1="100%" x2="100%" y2="0%"><stop offset="30%" stop-color="#5271ff" stop-opacity="1"></stop><stop offset="70%" stop-color="#5271ff" stop-opacity="1"></stop></linearGradient></defs><g transform="translate(1920, 3700)"><path d="M-1920 0C-1870.9 -337.8 -1821.9 -675.6 -1662.8 -960C-1503.7 -1244.4 -1234.5 -1475.3 -939 -1626.4C-643.5 -1777.5 -321.8 -1848.7 0 -1920L0 0Z" fill="#f9f4f5"></path></g><g transform="translate(0, 0)"><path d="M1920 0C1870.9 337.8 1821.9 675.6 1662.8 960C1503.7 1244.4 1234.5 1475.3 939 1626.4C643.5 1777.5 321.8 1848.7 0 1920L0 0Z" fill="#f9f4f5"></path></g></svg>