<?xml version="1.0" standalone="no"?>
<!DOCTYPE svg PUBLIC "-//W3C//DTD SVG 20010904//EN" "http://www.w3.org/TR/2001/REC-SVG-20010904/DTD/svg10.dtd">
<svg version="1.0" xmlns="http://www.w3.org/2000/svg" width="1399.000000pt" height="313.000000pt" viewBox="0 0 1399.000000 313.000000" preserveAspectRatio="xMidYMid meet">

    <g transform="translate(0.000000,313.000000) scale(0.100000,-0.100000)" fill="#fff" style="fill: var(--color1);" stroke="none">
        <path fill="#5271ff" d="M1437 3088 c-357 -22 -688 -177 -957 -447 -229 -230 -371 -497 -427
-803 -23 -126 -23 -380 0 -505 90 -491 427 -920 884 -1126 380 -171 785 -175
1180 -13 108 45 252 131 353 211 292 233 488 562 561 940 18 92 18 388 0 480
-94 488 -386 883 -816 1103 -248 127 -496 178 -778 160z m398 -482 c143 -35
240 -76 334 -143 238 -170 354 -433 368 -833 11 -306 -51 -569 -176 -747 -174
-248 -438 -365 -821 -366 -651 0 -1000 369 -1000 1058 0 378 93 637 299 827
130 120 291 188 526 222 75 11 402 -2 470 -18z" />
        <path fill="#5271ff" d="M1434 2141 c-194 -50 -286 -230 -286 -565 0 -289 69 -463 213 -537
143 -72 363 -35 455 77 75 92 103 195 111 411 11 323 -57 513 -213 589 -47 23
-71 28 -152 30 -53 2 -111 0 -128 -5z" />
        <path d="M8990 2991 c-132 -28 -206 -176 -151 -303 59 -137 218 -178 359 -93
40 24 92 125 92 178 0 72 -60 171 -122 200 -41 19 -131 28 -178 18z" />
        <path d="M10490 2516 c0 -231 -4 -356 -10 -356 -5 0 -10 4 -10 9 0 9 -87 68
-130 88 -133 62 -308 55 -450 -20 -119 -62 -239 -221 -285 -377 -9 -30 -22
-73 -28 -95 -8 -25 -12 -116 -12 -245 0 -253 9 -296 95 -473 66 -135 144 -205
285 -254 64 -22 243 -25 295 -4 113 46 144 65 209 131 l69 69 7 -89 7 -90 169
0 169 0 0 1009 c0 1123 7 1021 -69 1021 -21 0 -60 4 -87 9 -27 5 -88 12 -136
16 l-88 7 0 -356z m-134 -528 c23 -10 62 -39 88 -63 l46 -45 0 -325 c0 -200
-4 -331 -10 -338 -42 -52 -92 -99 -130 -123 -41 -26 -53 -29 -130 -29 -68 0
-91 4 -115 20 -65 42 -107 106 -126 193 -34 150 -21 505 20 556 5 6 12 22 16
35 10 32 72 99 110 119 67 35 156 35 231 0z" />
        <path d="M4105 2281 c-144 -35 -260 -110 -358 -231 -34 -42 -105 -188 -114
-232 -3 -18 -10 -40 -14 -49 -18 -36 -30 -246 -19 -349 13 -128 31 -194 81
-296 75 -154 194 -258 359 -314 87 -29 107 -32 225 -33 100 -1 146 3 200 18
71 19 221 91 263 125 l23 19 -23 33 c-13 18 -25 35 -28 38 -3 3 -30 41 -59 85
-30 44 -55 81 -56 83 -1 1 -28 -14 -61 -33 -132 -80 -300 -85 -396 -11 -103
78 -133 170 -132 401 0 135 4 171 22 231 42 136 114 209 229 233 48 10 71 10
133 -4 65 -13 134 -39 150 -55 3 -3 16 -13 31 -22 25 -16 26 -15 50 21 13 20
28 41 34 48 23 28 32 40 55 73 13 19 30 41 38 49 11 12 8 19 -25 48 -53 46
-184 108 -272 127 -94 20 -245 19 -336 -3z" />
        <path d="M5425 2288 c-85 -21 -203 -68 -232 -93 -6 -5 -24 -20 -40 -32 -46
-35 -67 -56 -99 -98 -72 -95 -93 -141 -146 -315 -21 -71 -18 -366 5 -455 32
-122 68 -202 127 -280 31 -41 127 -130 156 -145 16 -8 31 -18 34 -21 3 -4 48
-21 100 -39 89 -30 104 -33 235 -33 105 -1 155 4 200 17 60 17 67 20 139 52
88 40 208 159 258 256 33 65 58 127 58 145 0 11 4 23 9 28 12 13 31 172 31
265 0 304 -100 526 -297 658 -105 70 -231 103 -391 101 -59 -1 -125 -6 -147
-11z m265 -295 c68 -30 113 -88 144 -183 24 -73 35 -248 25 -385 -13 -175 -57
-274 -146 -330 -44 -28 -55 -30 -138 -30 -81 0 -94 3 -132 27 -78 51 -109 102
-138 224 -24 97 -24 344 -1 439 30 124 65 182 136 223 68 40 178 47 250 15z" />
        <path d="M7215 2284 c-85 -23 -157 -66 -227 -136 -74 -74 -74 -74 -84 28 -5
48 -12 67 -25 75 -11 5 -83 8 -166 7 l-148 -3 -3 -722 -2 -723 190 0 190 0 0
501 0 501 36 54 c69 103 127 144 206 144 58 0 96 -19 123 -63 19 -31 20 -55
23 -585 l3 -552 192 2 192 3 3 503 2 503 25 38 c34 55 94 115 134 134 19 10
58 17 86 17 59 0 92 -20 122 -73 17 -30 18 -74 21 -579 l3 -548 189 0 190 0 0
564 c0 620 -1 632 -61 743 -99 183 -327 235 -549 125 -31 -15 -85 -57 -126
-99 l-73 -72 -29 52 c-50 88 -103 128 -212 163 -55 17 -158 16 -225 -2z" />
        <path d="M11660 2280 c-98 -27 -140 -42 -140 -52 0 -4 -5 -8 -10 -8 -24 0
-121 -84 -175 -150 -122 -150 -182 -402 -156 -661 14 -142 67 -302 119 -357 6
-7 12 -17 12 -22 0 -7 114 -125 141 -145 34 -25 131 -67 199 -86 59 -17 103
-22 210 -22 189 -1 292 27 455 122 108 63 107 57 36 153 -33 46 -69 93 -79
106 l-18 23 -57 -34 c-31 -19 -71 -40 -89 -46 -18 -7 -42 -17 -52 -23 -11 -6
-65 -13 -120 -15 -117 -6 -187 12 -256 67 -44 34 -94 128 -105 195 -3 22 -9
52 -11 68 l-6 27 450 0 449 0 7 46 c25 187 -37 480 -126 590 -111 137 -198
192 -371 233 -71 17 -231 12 -307 -9z m245 -250 c3 -5 16 -10 27 -10 32 0 112
-88 132 -146 9 -27 20 -86 23 -131 l6 -83 -267 0 -267 0 7 53 c14 120 45 206
95 261 34 37 111 65 176 66 34 0 65 -4 68 -10z" />
        <path d="M8870 1530 l0 -720 185 0 185 0 0 720 0 720 -185 0 -185 0 0 -720z" />
        <path d="M12570 2223 c4 -16 10 -35 13 -43 3 -8 49 -150 102 -315 54 -165 121
-372 150 -460 29 -88 76 -234 104 -325 29 -91 57 -172 61 -181 5 -9 12 -33 15
-53 l7 -36 228 0 228 0 27 87 c42 134 83 262 140 438 29 88 63 194 75 235 12
41 46 147 75 235 29 88 69 214 90 280 20 66 41 130 46 143 l9 22 -194 0 -194
0 -10 -27 c-9 -24 -77 -293 -103 -408 -9 -40 -14 -61 -43 -165 -18 -63 -63
-243 -110 -440 -8 -30 -17 -64 -22 -75 -7 -17 -9 -16 -17 10 -5 17 -15 57 -23
90 -8 33 -22 86 -30 118 -7 31 -21 84 -29 117 -8 33 -22 86 -29 118 -8 31 -22
85 -30 120 -9 34 -23 89 -31 122 -21 86 -40 159 -70 285 -15 61 -29 116 -31
123 -2 9 -53 12 -208 12 l-205 0 9 -27z" />
    </g>
</svg>
